<svg width="206" height="199" viewBox="0 0 206 199" fill="none" xmlns="http://www.w3.org/2000/svg">
<g filter="url(#filter0_f_392_1247)">
<path d="M104.925 53.9585H99.2167C73.7704 53.9585 53.1421 74.5868 53.1421 100.033V100.033C53.1421 125.479 73.7704 146.108 99.2167 146.108H104.925C130.372 146.108 151 125.479 151 100.033V100.033C151 74.5868 130.372 53.9585 104.925 53.9585Z" fill="#A4A2B9" fill-opacity="0.61"/>
</g>
<path d="M140.913 87.7368C141.178 86.2636 141.316 84.7481 141.316 83.2013C141.316 68.7307 129.232 57 114.325 57C103.243 57 93.7206 63.4832 89.5637 72.7555C86.1961 69.9332 81.8263 68.2291 77.0509 68.2291C66.4031 68.2291 57.7713 76.7013 57.7713 87.1523C57.7713 87.7342 57.7981 88.31 57.8505 88.8786C52.7291 91.3137 49.2026 96.4233 49.2026 102.332C49.2026 110.601 56.108 117.305 64.6263 117.305H137.46C145.979 117.305 152.884 110.601 152.884 102.332C152.884 95.2158 147.769 89.2589 140.913 87.7368Z" fill="#54516D" fill-opacity="0.8"/>
<path d="M145.961 117.755C146.161 116.618 146.265 115.448 146.265 114.254C146.265 103.084 137.14 94.0288 125.884 94.0288C117.516 94.0288 110.326 99.0334 107.187 106.191C104.644 104.012 101.344 102.697 97.7383 102.697C89.6981 102.697 83.1802 109.237 83.1802 117.304C83.1802 117.753 83.2004 118.198 83.24 118.637C79.3728 120.517 76.7099 124.461 76.7099 129.022C76.7099 135.405 81.9242 140.58 88.3564 140.58H143.354C149.786 140.58 155 135.405 155 129.022C155 123.529 151.138 118.93 145.961 117.755Z" fill="#54516D" fill-opacity="0.8"/>
<defs>
<filter id="filter0_f_392_1247" x="3.14209" y="3.9585" width="197.858" height="192.149" filterUnits="userSpaceOnUse" color-interpolation-filters="sRGB">
<feFlood flood-opacity="0" result="BackgroundImageFix"/>
<feBlend mode="normal" in="SourceGraphic" in2="BackgroundImageFix" result="shape"/>
<feGaussianBlur stdDeviation="25" result="effect1_foregroundBlur_392_1247"/>
</filter>
</defs>
</svg>
