<svg width="206" height="199" viewBox="0 0 206 199" fill="none" xmlns="http://www.w3.org/2000/svg">
<g filter="url(#filter0_f_395_1508)">
<path d="M105.35 63H100.792C80.4722 63 64 79.4722 64 99.7917V99.7918C64 120.111 80.4722 136.583 100.792 136.583H105.35C125.67 136.583 142.142 120.111 142.142 99.7918V99.7917C142.142 79.4722 125.67 63 105.35 63Z" fill="#A4A2B9" fill-opacity="0.61"/>
</g>
<g style="mix-blend-mode:color-burn" opacity="0.5" filter="url(#filter1_f_395_1508)">
<path d="M91.4985 137.724C91.4023 138.203 91.3501 138.674 91.3501 139.14C91.3502 142.39 93.9105 145.024 97.0679 145.024C99.2851 145.024 101.206 143.724 102.154 141.825C101.759 144.678 99.3771 146.873 96.4956 146.873C93.3383 146.872 90.7788 144.238 90.7788 140.988C90.7789 139.934 91.0383 138.855 91.4985 137.724Z" fill="url(#paint0_radial_395_1508)" fill-opacity="0.3"/>
</g>
<path opacity="0.5" d="M102.156 140.959C102.156 144.209 99.5961 146.844 96.4387 146.844C93.2813 146.844 90.7217 144.209 90.7217 140.959C90.7217 137.709 93.18 134.212 96.4387 129.714C99.1829 134.089 102.156 137.709 102.156 140.959Z" fill="url(#paint1_radial_395_1508)"/>
<g style="mix-blend-mode:screen" opacity="0.3">
<ellipse cx="97.8963" cy="136.123" rx="5.85996" ry="6.16157" fill="url(#paint2_radial_395_1508)"/>
</g>
<g style="mix-blend-mode:screen" opacity="0.3">
<ellipse cx="94.5807" cy="142.839" rx="5.85996" ry="6.16157" fill="url(#paint3_radial_395_1508)"/>
</g>
<g style="mix-blend-mode:color-burn" opacity="0.5" filter="url(#filter2_f_395_1508)">
<path d="M102.586 123.114C102.5 123.514 102.453 123.908 102.453 124.298C102.453 127.012 104.738 129.211 107.558 129.211C109.538 129.211 111.252 128.125 112.099 126.539C111.747 128.922 109.62 130.755 107.047 130.755C104.228 130.755 101.943 128.556 101.942 125.842C101.942 124.962 102.174 124.059 102.586 123.114Z" fill="url(#paint4_radial_395_1508)" fill-opacity="0.3"/>
</g>
<path opacity="0.5" d="M112.101 125.818C112.101 128.531 109.815 130.731 106.996 130.731C104.177 130.731 101.892 128.531 101.892 125.818C101.892 123.104 104.087 120.184 106.996 116.429C109.446 120.081 112.101 123.104 112.101 125.818Z" fill="url(#paint5_radial_395_1508)"/>
<g style="mix-blend-mode:screen" opacity="0.3">
<ellipse cx="108.298" cy="121.779" rx="5.23211" ry="5.14463" fill="url(#paint6_radial_395_1508)"/>
</g>
<g style="mix-blend-mode:screen" opacity="0.3">
<ellipse cx="105.337" cy="127.387" rx="5.23211" ry="5.14463" fill="url(#paint7_radial_395_1508)"/>
</g>
<g style="mix-blend-mode:color-burn" opacity="0.5" filter="url(#filter3_f_395_1508)">
<path d="M112.978 137.724C112.882 138.202 112.83 138.673 112.83 139.14C112.83 142.389 115.39 145.024 118.548 145.024C120.765 145.024 122.685 143.724 123.634 141.824C123.239 144.678 120.857 146.872 117.975 146.872C114.818 146.872 112.259 144.238 112.259 140.988C112.259 139.935 112.518 138.855 112.978 137.724Z" fill="url(#paint8_radial_395_1508)" fill-opacity="0.3"/>
</g>
<path opacity="0.5" d="M123.635 140.959C123.635 144.209 121.076 146.844 117.918 146.844C114.761 146.844 112.201 144.209 112.201 140.959C112.201 137.709 114.659 134.212 117.918 129.714C120.662 134.089 123.635 137.709 123.635 140.959Z" fill="url(#paint9_radial_395_1508)"/>
<g style="mix-blend-mode:screen" opacity="0.3">
<ellipse cx="119.376" cy="136.123" rx="5.85996" ry="6.16157" fill="url(#paint10_radial_395_1508)"/>
</g>
<g style="mix-blend-mode:screen" opacity="0.3">
<ellipse cx="116.06" cy="142.839" rx="5.85996" ry="6.16157" fill="url(#paint11_radial_395_1508)"/>
</g>
<g style="mix-blend-mode:color-burn" opacity="0.5" filter="url(#filter4_f_395_1508)">
<path d="M81.5359 123.03C81.4496 123.431 81.4031 123.825 81.4031 124.215C81.4031 126.928 83.6884 129.128 86.5076 129.128C88.4878 129.128 90.2022 128.041 91.0486 126.455C90.697 128.839 88.5702 130.672 85.9968 130.672C83.1778 130.672 80.8924 128.472 80.8923 125.759C80.8923 124.878 81.1241 123.976 81.5359 123.03Z" fill="url(#paint12_radial_395_1508)" fill-opacity="0.3"/>
</g>
<path opacity="0.5" d="M91.0503 125.734C91.0503 128.448 88.7649 130.647 85.9458 130.647C83.1267 130.647 80.8413 128.448 80.8413 125.734C80.8413 123.021 83.0362 120.101 85.9458 116.345C88.396 119.998 91.0503 123.021 91.0503 125.734Z" fill="url(#paint13_radial_395_1508)"/>
<g style="mix-blend-mode:screen" opacity="0.3">
<ellipse cx="87.2475" cy="121.696" rx="5.23211" ry="5.14463" fill="url(#paint14_radial_395_1508)"/>
</g>
<g style="mix-blend-mode:screen" opacity="0.3">
<ellipse cx="84.2868" cy="127.303" rx="5.23211" ry="5.14463" fill="url(#paint15_radial_395_1508)"/>
</g>
<g style="mix-blend-mode:color-burn" opacity="0.5" filter="url(#filter5_f_395_1508)">
<path d="M123.421 123.114C123.335 123.514 123.289 123.908 123.289 124.298C123.289 127.012 125.574 129.211 128.393 129.211C130.373 129.211 132.088 128.125 132.934 126.539C132.583 128.922 130.456 130.755 127.882 130.755C125.063 130.755 122.778 128.556 122.778 125.842C122.778 124.962 123.01 124.059 123.421 123.114Z" fill="url(#paint16_radial_395_1508)" fill-opacity="0.3"/>
</g>
<path opacity="0.5" d="M132.936 125.818C132.936 128.531 130.65 130.731 127.831 130.731C125.012 130.731 122.727 128.531 122.727 125.818C122.727 123.104 124.921 120.184 127.831 116.429C130.281 120.081 132.936 123.104 132.936 125.818Z" fill="url(#paint17_radial_395_1508)"/>
<g style="mix-blend-mode:screen" opacity="0.3">
<ellipse cx="129.133" cy="121.779" rx="5.23211" ry="5.14463" fill="url(#paint18_radial_395_1508)"/>
</g>
<g style="mix-blend-mode:screen" opacity="0.3">
<ellipse cx="126.172" cy="127.387" rx="5.23211" ry="5.14463" fill="url(#paint19_radial_395_1508)"/>
</g>
<mask id="path-22-inside-1_395_1508" fill="white">
<path d="M90.2197 50C104.529 50.0001 116.657 59.3066 120.859 72.1826C122.663 71.6922 124.561 71.4287 126.521 71.4287C138.383 71.4288 148 81.0228 148 92.8574C148 104.507 138.681 113.986 127.074 114.279L126.521 114.286H90.2197L89.3877 114.275C71.9778 113.835 58 99.6171 58 82.1426C58.0001 64.3907 72.4254 50 90.2197 50Z"/>
</mask>
<g filter="url(#filter6_i_395_1508)">
<path d="M90.2197 50C104.529 50.0001 116.657 59.3066 120.859 72.1826C122.663 71.6922 124.561 71.4287 126.521 71.4287C138.383 71.4288 148 81.0228 148 92.8574C148 104.507 138.681 113.986 127.074 114.279L126.521 114.286H90.2197L89.3877 114.275C71.9778 113.835 58 99.6171 58 82.1426C58.0001 64.3907 72.4254 50 90.2197 50Z" fill="url(#paint20_linear_395_1508)"/>
</g>
<path d="M90.2197 50L90.2197 49H90.2197V50ZM120.859 72.1826L119.909 72.4929L120.204 73.3971L121.122 73.1476L120.859 72.1826ZM126.521 71.4287L126.521 70.4287H126.521V71.4287ZM148 92.8574H149H148ZM127.074 114.279L127.087 115.279L127.099 115.279L127.074 114.279ZM126.521 114.286V115.286L126.533 115.286L126.521 114.286ZM90.2197 114.286L90.2068 115.286H90.2197V114.286ZM89.3877 114.275L89.3624 115.275L89.3748 115.275L89.3877 114.275ZM58 82.1426L57 82.1426V82.1426H58ZM90.2197 50L90.2197 51C104.085 51.0001 115.837 60.0172 119.909 72.4929L120.859 72.1826L121.81 71.8723C117.476 58.596 104.973 49.0001 90.2197 49L90.2197 50ZM120.859 72.1826L121.122 73.1476C122.841 72.6801 124.651 72.4287 126.521 72.4287V71.4287V70.4287C124.471 70.4287 122.485 70.7044 120.597 71.2176L120.859 72.1826ZM126.521 71.4287L126.521 72.4287C137.833 72.4288 147 81.5773 147 92.8574H148H149C149 80.4683 138.933 70.4288 126.521 70.4287L126.521 71.4287ZM148 92.8574H147C147 103.961 138.117 113 127.049 113.28L127.074 114.279L127.099 115.279C139.245 114.972 149 105.053 149 92.8574H148ZM127.074 114.279L127.062 113.279L126.508 113.286L126.521 114.286L126.533 115.286L127.087 115.279L127.074 114.279ZM126.521 114.286V113.286H90.2197V114.286V115.286H126.521V114.286ZM90.2197 114.286L90.2326 113.286L89.4006 113.275L89.3877 114.275L89.3748 115.275L90.2068 115.286L90.2197 114.286ZM89.3877 114.275L89.413 113.276C72.5418 112.849 59 99.0712 59 82.1426H58H57C57 100.163 71.4138 114.821 89.3624 115.275L89.3877 114.275ZM58 82.1426L59 82.1426C59.0001 64.9452 72.9755 51 90.2197 51V50V49C71.8754 49 57.0001 63.8362 57 82.1426L58 82.1426Z" fill="black" fill-opacity="0.05" mask="url(#path-22-inside-1_395_1508)"/>
<defs>
<filter id="filter0_f_395_1508" x="14" y="13" width="178.142" height="173.583" filterUnits="userSpaceOnUse" color-interpolation-filters="sRGB">
<feFlood flood-opacity="0" result="BackgroundImageFix"/>
<feBlend mode="normal" in="SourceGraphic" in2="BackgroundImageFix" result="shape"/>
<feGaussianBlur stdDeviation="25" result="effect1_foregroundBlur_395_1508"/>
</filter>
<filter id="filter1_f_395_1508" x="82.7788" y="129.724" width="27.375" height="25.1484" filterUnits="userSpaceOnUse" color-interpolation-filters="sRGB">
<feFlood flood-opacity="0" result="BackgroundImageFix"/>
<feBlend mode="normal" in="SourceGraphic" in2="BackgroundImageFix" result="shape"/>
<feGaussianBlur stdDeviation="4" result="effect1_foregroundBlur_395_1508"/>
</filter>
<filter id="filter2_f_395_1508" x="93.9424" y="115.114" width="26.1562" height="23.6416" filterUnits="userSpaceOnUse" color-interpolation-filters="sRGB">
<feFlood flood-opacity="0" result="BackgroundImageFix"/>
<feBlend mode="normal" in="SourceGraphic" in2="BackgroundImageFix" result="shape"/>
<feGaussianBlur stdDeviation="4" result="effect1_foregroundBlur_395_1508"/>
</filter>
<filter id="filter3_f_395_1508" x="104.259" y="129.724" width="27.375" height="25.1484" filterUnits="userSpaceOnUse" color-interpolation-filters="sRGB">
<feFlood flood-opacity="0" result="BackgroundImageFix"/>
<feBlend mode="normal" in="SourceGraphic" in2="BackgroundImageFix" result="shape"/>
<feGaussianBlur stdDeviation="4" result="effect1_foregroundBlur_395_1508"/>
</filter>
<filter id="filter4_f_395_1508" x="72.8923" y="115.03" width="26.1562" height="23.6416" filterUnits="userSpaceOnUse" color-interpolation-filters="sRGB">
<feFlood flood-opacity="0" result="BackgroundImageFix"/>
<feBlend mode="normal" in="SourceGraphic" in2="BackgroundImageFix" result="shape"/>
<feGaussianBlur stdDeviation="4" result="effect1_foregroundBlur_395_1508"/>
</filter>
<filter id="filter5_f_395_1508" x="114.778" y="115.114" width="26.1562" height="23.6416" filterUnits="userSpaceOnUse" color-interpolation-filters="sRGB">
<feFlood flood-opacity="0" result="BackgroundImageFix"/>
<feBlend mode="normal" in="SourceGraphic" in2="BackgroundImageFix" result="shape"/>
<feGaussianBlur stdDeviation="4" result="effect1_foregroundBlur_395_1508"/>
</filter>
<filter id="filter6_i_395_1508" x="58" y="50" width="90" height="112.933" filterUnits="userSpaceOnUse" color-interpolation-filters="sRGB">
<feFlood flood-opacity="0" result="BackgroundImageFix"/>
<feBlend mode="normal" in="SourceGraphic" in2="BackgroundImageFix" result="shape"/>
<feColorMatrix in="SourceAlpha" type="matrix" values="0 0 0 0 0 0 0 0 0 0 0 0 0 0 0 0 0 0 127 0" result="hardAlpha"/>
<feOffset dy="48.6468"/>
<feGaussianBlur stdDeviation="30"/>
<feComposite in2="hardAlpha" operator="arithmetic" k2="-1" k3="1"/>
<feColorMatrix type="matrix" values="0 0 0 0 1 0 0 0 0 1 0 0 0 0 1 0 0 0 1 0"/>
<feBlend mode="normal" in2="shape" result="effect1_innerShadow_395_1508"/>
</filter>
<radialGradient id="paint0_radial_395_1508" cx="0" cy="0" r="1" gradientTransform="matrix(7.54546 -6.28496 4.19467 5.85142 96.4951 141.389)" gradientUnits="userSpaceOnUse">
<stop stop-color="#3CC7F5"/>
<stop offset="0.0001" stop-color="#3CC7F5"/>
<stop offset="1" stop-color="#004DFF"/>
</radialGradient>
<radialGradient id="paint1_radial_395_1508" cx="0" cy="0" r="1" gradientTransform="matrix(7.54649 -6.2848 4.19523 5.85127 96.4387 141.36)" gradientUnits="userSpaceOnUse">
<stop stop-color="#3CC7F5"/>
<stop offset="0.0001" stop-color="#3CC7F5"/>
<stop offset="1" stop-color="#004DFF"/>
</radialGradient>
<radialGradient id="paint2_radial_395_1508" cx="0" cy="0" r="1" gradientTransform="matrix(4.51217 7.20904 -1.98465 1.37336 97.8963 136.123)" gradientUnits="userSpaceOnUse">
<stop stop-color="white"/>
<stop offset="0.555017" stop-color="#BDDBF1" stop-opacity="0.25"/>
<stop offset="1" stop-color="#5686F5" stop-opacity="0"/>
</radialGradient>
<radialGradient id="paint3_radial_395_1508" cx="0" cy="0" r="1" gradientTransform="matrix(2.85852 3.63533 -1.63971 1.49764 94.2662 142.839)" gradientUnits="userSpaceOnUse">
<stop stop-color="white"/>
<stop offset="0.673987" stop-color="#BDDBF1" stop-opacity="0.25"/>
<stop offset="1" stop-color="#5686F5" stop-opacity="0"/>
</radialGradient>
<radialGradient id="paint4_radial_395_1508" cx="0" cy="0" r="1" gradientTransform="matrix(6.73702 -5.24977 3.74524 4.88764 107.046 126.175)" gradientUnits="userSpaceOnUse">
<stop stop-color="#3CC7F5"/>
<stop offset="0.0001" stop-color="#3CC7F5"/>
<stop offset="1" stop-color="#004DFF"/>
</radialGradient>
<radialGradient id="paint5_radial_395_1508" cx="0" cy="0" r="1" gradientTransform="matrix(6.73793 -5.24752 3.74574 4.88555 106.996 126.152)" gradientUnits="userSpaceOnUse">
<stop stop-color="#3CC7F5"/>
<stop offset="0.0001" stop-color="#3CC7F5"/>
<stop offset="1" stop-color="#004DFF"/>
</radialGradient>
<radialGradient id="paint6_radial_395_1508" cx="0" cy="0" r="1" gradientTransform="matrix(4.02872 6.01922 -1.77201 1.14669 108.298 121.779)" gradientUnits="userSpaceOnUse">
<stop stop-color="white"/>
<stop offset="0.555017" stop-color="#BDDBF1" stop-opacity="0.25"/>
<stop offset="1" stop-color="#5686F5" stop-opacity="0"/>
</radialGradient>
<radialGradient id="paint7_radial_395_1508" cx="0" cy="0" r="1" gradientTransform="matrix(2.55225 3.03533 -1.46403 1.25046 105.056 127.387)" gradientUnits="userSpaceOnUse">
<stop stop-color="white"/>
<stop offset="0.673987" stop-color="#BDDBF1" stop-opacity="0.25"/>
<stop offset="1" stop-color="#5686F5" stop-opacity="0"/>
</radialGradient>
<radialGradient id="paint8_radial_395_1508" cx="0" cy="0" r="1" gradientTransform="matrix(7.54546 -6.28496 4.19467 5.85142 117.975 141.388)" gradientUnits="userSpaceOnUse">
<stop stop-color="#3CC7F5"/>
<stop offset="0.0001" stop-color="#3CC7F5"/>
<stop offset="1" stop-color="#004DFF"/>
</radialGradient>
<radialGradient id="paint9_radial_395_1508" cx="0" cy="0" r="1" gradientTransform="matrix(7.54649 -6.2848 4.19523 5.85127 117.918 141.36)" gradientUnits="userSpaceOnUse">
<stop stop-color="#3CC7F5"/>
<stop offset="0.0001" stop-color="#3CC7F5"/>
<stop offset="1" stop-color="#004DFF"/>
</radialGradient>
<radialGradient id="paint10_radial_395_1508" cx="0" cy="0" r="1" gradientTransform="matrix(4.51217 7.20904 -1.98465 1.37336 119.376 136.123)" gradientUnits="userSpaceOnUse">
<stop stop-color="white"/>
<stop offset="0.555017" stop-color="#BDDBF1" stop-opacity="0.25"/>
<stop offset="1" stop-color="#5686F5" stop-opacity="0"/>
</radialGradient>
<radialGradient id="paint11_radial_395_1508" cx="0" cy="0" r="1" gradientTransform="matrix(2.85852 3.63533 -1.63971 1.49764 115.746 142.839)" gradientUnits="userSpaceOnUse">
<stop stop-color="white"/>
<stop offset="0.673987" stop-color="#BDDBF1" stop-opacity="0.25"/>
<stop offset="1" stop-color="#5686F5" stop-opacity="0"/>
</radialGradient>
<radialGradient id="paint12_radial_395_1508" cx="0" cy="0" r="1" gradientTransform="matrix(6.73702 -5.24977 3.74524 4.88764 85.9961 126.091)" gradientUnits="userSpaceOnUse">
<stop stop-color="#3CC7F5"/>
<stop offset="0.0001" stop-color="#3CC7F5"/>
<stop offset="1" stop-color="#004DFF"/>
</radialGradient>
<radialGradient id="paint13_radial_395_1508" cx="0" cy="0" r="1" gradientTransform="matrix(6.73793 -5.24752 3.74574 4.88555 85.9458 126.069)" gradientUnits="userSpaceOnUse">
<stop stop-color="#3CC7F5"/>
<stop offset="0.0001" stop-color="#3CC7F5"/>
<stop offset="1" stop-color="#004DFF"/>
</radialGradient>
<radialGradient id="paint14_radial_395_1508" cx="0" cy="0" r="1" gradientTransform="matrix(4.02872 6.01922 -1.77201 1.14669 87.2475 121.696)" gradientUnits="userSpaceOnUse">
<stop stop-color="white"/>
<stop offset="0.555017" stop-color="#BDDBF1" stop-opacity="0.25"/>
<stop offset="1" stop-color="#5686F5" stop-opacity="0"/>
</radialGradient>
<radialGradient id="paint15_radial_395_1508" cx="0" cy="0" r="1" gradientTransform="matrix(2.55225 3.03533 -1.46403 1.25046 84.006 127.303)" gradientUnits="userSpaceOnUse">
<stop stop-color="white"/>
<stop offset="0.673987" stop-color="#BDDBF1" stop-opacity="0.25"/>
<stop offset="1" stop-color="#5686F5" stop-opacity="0"/>
</radialGradient>
<radialGradient id="paint16_radial_395_1508" cx="0" cy="0" r="1" gradientTransform="matrix(6.73702 -5.24977 3.74524 4.88764 127.882 126.175)" gradientUnits="userSpaceOnUse">
<stop stop-color="#3CC7F5"/>
<stop offset="0.0001" stop-color="#3CC7F5"/>
<stop offset="1" stop-color="#004DFF"/>
</radialGradient>
<radialGradient id="paint17_radial_395_1508" cx="0" cy="0" r="1" gradientTransform="matrix(6.73793 -5.24752 3.74574 4.88555 127.831 126.152)" gradientUnits="userSpaceOnUse">
<stop stop-color="#3CC7F5"/>
<stop offset="0.0001" stop-color="#3CC7F5"/>
<stop offset="1" stop-color="#004DFF"/>
</radialGradient>
<radialGradient id="paint18_radial_395_1508" cx="0" cy="0" r="1" gradientTransform="matrix(4.02872 6.01922 -1.77201 1.14669 129.133 121.779)" gradientUnits="userSpaceOnUse">
<stop stop-color="white"/>
<stop offset="0.555017" stop-color="#BDDBF1" stop-opacity="0.25"/>
<stop offset="1" stop-color="#5686F5" stop-opacity="0"/>
</radialGradient>
<radialGradient id="paint19_radial_395_1508" cx="0" cy="0" r="1" gradientTransform="matrix(2.55225 3.03533 -1.46403 1.25046 125.892 127.387)" gradientUnits="userSpaceOnUse">
<stop stop-color="white"/>
<stop offset="0.673987" stop-color="#BDDBF1" stop-opacity="0.25"/>
<stop offset="1" stop-color="#5686F5" stop-opacity="0"/>
</radialGradient>
<linearGradient id="paint20_linear_395_1508" x1="64.305" y1="50" x2="147.885" y2="114.47" gradientUnits="userSpaceOnUse">
<stop stop-color="white"/>
<stop offset="1" stop-color="#C1C1C1"/>
</linearGradient>
</defs>
</svg>
