<svg width="206" height="199" viewBox="0 0 206 199" fill="none" xmlns="http://www.w3.org/2000/svg">
<g clip-path="url(#clip0_392_1235)">
<g filter="url(#filter0_f_392_1235)">
<rect x="73.4297" y="51.8071" width="85.96" height="80.9457" rx="40.4728" fill="#FFEF9A"/>
</g>
<g filter="url(#filter1_i_392_1235)">
<path d="M103.343 70.7811C103.468 70.0727 103.533 69.3439 103.533 68.6C103.533 61.6412 97.8219 56 90.7769 56C85.5395 56 81.0393 59.1177 79.0747 63.5767C77.4832 62.2195 75.418 61.4 73.1612 61.4C68.129 61.4 64.0496 65.4742 64.0496 70.5C64.0496 70.7799 64.0622 71.0568 64.087 71.3302C61.6666 72.5012 60 74.9584 60 77.8C60 81.7765 63.2635 85 67.2893 85H101.711C105.736 85 109 81.7765 109 77.8C109 74.3777 106.583 71.5131 103.343 70.7811Z" fill="url(#paint0_linear_392_1235)" fill-opacity="0.4"/>
</g>
<g filter="url(#filter2_i_392_1235)">
<path d="M149 98.5C149 116.449 134.449 131 116.5 131C98.5507 131 84 116.449 84 98.5C84 80.5507 98.5507 66 116.5 66C134.449 66 149 80.5507 149 98.5Z" fill="url(#paint1_linear_392_1235)"/>
</g>
<g filter="url(#filter4_i_392_1235)">
<path d="M137.658 117.935C137.917 116.465 138.052 114.953 138.052 113.409C138.052 98.9706 126.238 87.2656 111.665 87.2656C100.831 87.2656 91.5216 93.7346 87.4578 102.987C84.1655 100.17 79.8935 98.4701 75.225 98.4701C64.8155 98.4701 56.3769 106.924 56.3769 117.352C56.3769 117.932 56.403 118.507 56.4542 119.074C51.4474 121.504 47.9999 126.602 47.9999 132.498C47.9999 140.749 54.7508 147.438 63.0784 147.438H134.283C142.61 147.438 149.361 140.749 149.361 132.498C149.361 125.397 144.361 119.454 137.658 117.935Z" fill="url(#paint2_linear_392_1235)"/>
</g>
</g>
<defs>
<filter id="filter0_f_392_1235" x="-3.57031" y="-25.1929" width="239.96" height="234.946" filterUnits="userSpaceOnUse" color-interpolation-filters="sRGB">
<feFlood flood-opacity="0" result="BackgroundImageFix"/>
<feBlend mode="normal" in="SourceGraphic" in2="BackgroundImageFix" result="shape"/>
<feGaussianBlur stdDeviation="38.5" result="effect1_foregroundBlur_392_1235"/>
</filter>
<filter id="filter1_i_392_1235" x="60" y="56" width="49" height="39" filterUnits="userSpaceOnUse" color-interpolation-filters="sRGB">
<feFlood flood-opacity="0" result="BackgroundImageFix"/>
<feBlend mode="normal" in="SourceGraphic" in2="BackgroundImageFix" result="shape"/>
<feColorMatrix in="SourceAlpha" type="matrix" values="0 0 0 0 0 0 0 0 0 0 0 0 0 0 0 0 0 0 127 0" result="hardAlpha"/>
<feOffset dy="11"/>
<feGaussianBlur stdDeviation="5"/>
<feComposite in2="hardAlpha" operator="arithmetic" k2="-1" k3="1"/>
<feColorMatrix type="matrix" values="0 0 0 0 1 0 0 0 0 1 0 0 0 0 1 0 0 0 1 0"/>
<feBlend mode="normal" in2="shape" result="effect1_innerShadow_392_1235"/>
</filter>
<filter id="filter2_i_392_1235" x="84" y="66" width="65" height="70" filterUnits="userSpaceOnUse" color-interpolation-filters="sRGB">
<feFlood flood-opacity="0" result="BackgroundImageFix"/>
<feBlend mode="normal" in="SourceGraphic" in2="BackgroundImageFix" result="shape"/>
<feColorMatrix in="SourceAlpha" type="matrix" values="0 0 0 0 0 0 0 0 0 0 0 0 0 0 0 0 0 0 127 0" result="hardAlpha"/>
<feOffset dy="5"/>
<feGaussianBlur stdDeviation="9"/>
<feComposite in2="hardAlpha" operator="arithmetic" k2="-1" k3="1"/>
<feColorMatrix type="matrix" values="0 0 0 0 1 0 0 0 0 1 0 0 0 0 1 0 0 0 0.81 0"/>
<feBlend mode="normal" in2="shape" result="effect1_innerShadow_392_1235"/>
</filter>
<filter id="filter4_i_392_1235" x="48" y="87.2656" width="101.361" height="70.1719" filterUnits="userSpaceOnUse" color-interpolation-filters="sRGB">
<feFlood flood-opacity="0" result="BackgroundImageFix"/>
<feBlend mode="normal" in="SourceGraphic" in2="BackgroundImageFix" result="shape"/>
<feColorMatrix in="SourceAlpha" type="matrix" values="0 0 0 0 0 0 0 0 0 0 0 0 0 0 0 0 0 0 127 0" result="hardAlpha"/>
<feOffset dy="11"/>
<feGaussianBlur stdDeviation="5"/>
<feComposite in2="hardAlpha" operator="arithmetic" k2="-1" k3="1"/>
<feColorMatrix type="matrix" values="0 0 0 0 1 0 0 0 0 1 0 0 0 0 1 0 0 0 1 0"/>
<feBlend mode="normal" in2="shape" result="effect1_innerShadow_392_1235"/>
</filter>
<linearGradient id="paint0_linear_392_1235" x1="63.1166" y1="82.4107" x2="112.442" y2="45.4126" gradientUnits="userSpaceOnUse">
<stop stop-color="white"/>
<stop offset="1" stop-color="white" stop-opacity="0.58"/>
</linearGradient>
<linearGradient id="paint1_linear_392_1235" x1="111.563" y1="116.19" x2="138.304" y2="69.2911" gradientUnits="userSpaceOnUse">
<stop stop-color="#FF9900"/>
<stop offset="1" stop-color="#FFEE94"/>
</linearGradient>
<linearGradient id="paint2_linear_392_1235" x1="54.4469" y1="142.065" x2="156.703" y2="65.5965" gradientUnits="userSpaceOnUse">
<stop stop-color="white"/>
<stop offset="1" stop-color="white" stop-opacity="0.58"/>
</linearGradient>
<clipPath id="clip0_392_1235">
<rect width="206" height="199" fill="white"/>
</clipPath>
</defs>
</svg>
