<svg width="21" height="21" viewBox="0 0 21 21" fill="none" xmlns="http://www.w3.org/2000/svg">
<mask id="mask0_356_1323" style="mask-type:alpha" maskUnits="userSpaceOnUse" x="0" y="0" width="21" height="21">
<rect x="0.5" y="0.5" width="20" height="20" fill="#D9D9D9"/>
</mask>
<g mask="url(#mask0_356_1323)">
<path d="M10.5003 18.8334C9.34755 18.8334 8.26421 18.6147 7.25033 18.1772C6.23644 17.7397 5.35449 17.1459 4.60449 16.3959C3.85449 15.6459 3.26074 14.764 2.82324 13.7501C2.38574 12.7362 2.16699 11.6529 2.16699 10.5001C2.16699 9.3473 2.38574 8.26397 2.82324 7.25008C3.26074 6.23619 3.85449 5.35425 4.60449 4.60425C5.35449 3.85425 6.23644 3.2605 7.25033 2.823C8.26421 2.3855 9.34755 2.16675 10.5003 2.16675C11.6531 2.16675 12.7364 2.3855 13.7503 2.823C14.7642 3.2605 15.6462 3.85425 16.3962 4.60425C17.1462 5.35425 17.7399 6.23619 18.1774 7.25008C18.6149 8.26397 18.8337 9.3473 18.8337 10.5001C18.8337 11.6529 18.6149 12.7362 18.1774 13.7501C17.7399 14.764 17.1462 15.6459 16.3962 16.3959C15.6462 17.1459 14.7642 17.7397 13.7503 18.1772C12.7364 18.6147 11.6531 18.8334 10.5003 18.8334ZM10.5003 17.1667C11.2503 17.1667 11.9725 17.0452 12.667 16.8022C13.3614 16.5591 14.0003 16.2084 14.5837 15.7501L5.25033 6.41675C4.79199 7.00008 4.4413 7.63897 4.19824 8.33341C3.95519 9.02786 3.83366 9.75008 3.83366 10.5001C3.83366 12.3612 4.47949 13.9376 5.77116 15.2292C7.06283 16.5209 8.63921 17.1667 10.5003 17.1667ZM15.7503 14.5834C16.2087 14.0001 16.5594 13.3612 16.8024 12.6667C17.0455 11.9723 17.167 11.2501 17.167 10.5001C17.167 8.63897 16.5212 7.06258 15.2295 5.77091C13.9378 4.47925 12.3614 3.83341 10.5003 3.83341C9.75033 3.83341 9.0281 3.95494 8.33366 4.198C7.63921 4.44105 7.00033 4.79175 6.41699 5.25008L15.7503 14.5834Z" fill="#ADAEB9"/>
</g>
</svg>
