<svg width="25" height="25" viewBox="0 0 25 25" fill="none" xmlns="http://www.w3.org/2000/svg">
<mask id="mask0_344_1754" style="mask-type:alpha" maskUnits="userSpaceOnUse" x="0" y="0" width="25" height="25">
<rect x="0.333984" y="0.875488" width="24" height="24" fill="#D9D9D9"/>
</mask>
<g mask="url(#mask0_344_1754)">
<path d="M12.334 17.8755C12.6173 17.8755 12.8548 17.7797 13.0465 17.588C13.2382 17.3963 13.334 17.1588 13.334 16.8755C13.334 16.5922 13.2382 16.3547 13.0465 16.163C12.8548 15.9713 12.6173 15.8755 12.334 15.8755C12.0507 15.8755 11.8132 15.9713 11.6215 16.163C11.4298 16.3547 11.334 16.5922 11.334 16.8755C11.334 17.1588 11.4298 17.3963 11.6215 17.588C11.8132 17.7797 12.0507 17.8755 12.334 17.8755ZM12.334 13.8755C12.6173 13.8755 12.8548 13.7797 13.0465 13.588C13.2382 13.3963 13.334 13.1588 13.334 12.8755V8.87549C13.334 8.59215 13.2382 8.35465 13.0465 8.16299C12.8548 7.97132 12.6173 7.87549 12.334 7.87549C12.0507 7.87549 11.8132 7.97132 11.6215 8.16299C11.4298 8.35465 11.334 8.59215 11.334 8.87549V12.8755C11.334 13.1588 11.4298 13.3963 11.6215 13.588C11.8132 13.7797 12.0507 13.8755 12.334 13.8755ZM12.334 22.8755C10.9507 22.8755 9.65065 22.613 8.43398 22.088C7.21732 21.563 6.15898 20.8505 5.25898 19.9505C4.35898 19.0505 3.64648 17.9922 3.12148 16.7755C2.59648 15.5588 2.33398 14.2588 2.33398 12.8755C2.33398 11.4922 2.59648 10.1922 3.12148 8.97549C3.64648 7.75882 4.35898 6.70049 5.25898 5.80049C6.15898 4.90049 7.21732 4.18799 8.43398 3.66299C9.65065 3.13799 10.9507 2.87549 12.334 2.87549C13.7173 2.87549 15.0173 3.13799 16.234 3.66299C17.4507 4.18799 18.509 4.90049 19.409 5.80049C20.309 6.70049 21.0215 7.75882 21.5465 8.97549C22.0715 10.1922 22.334 11.4922 22.334 12.8755C22.334 14.2588 22.0715 15.5588 21.5465 16.7755C21.0215 17.9922 20.309 19.0505 19.409 19.9505C18.509 20.8505 17.4507 21.563 16.234 22.088C15.0173 22.613 13.7173 22.8755 12.334 22.8755ZM12.334 20.8755C14.5673 20.8755 16.459 20.1005 18.009 18.5505C19.559 17.0005 20.334 15.1088 20.334 12.8755C20.334 10.6422 19.559 8.75049 18.009 7.20049C16.459 5.65049 14.5673 4.87549 12.334 4.87549C10.1007 4.87549 8.20898 5.65049 6.65898 7.20049C5.10898 8.75049 4.33398 10.6422 4.33398 12.8755C4.33398 15.1088 5.10898 17.0005 6.65898 18.5505C8.20898 20.1005 10.1007 20.8755 12.334 20.8755Z" fill="white"/>
</g>
</svg>
