<svg width="21" height="21" viewBox="0 0 21 21" fill="none" xmlns="http://www.w3.org/2000/svg">
<mask id="mask0_487_2720" style="mask-type:alpha" maskUnits="userSpaceOnUse" x="0" y="0" width="21" height="21">
<rect x="0.5" y="0.5" width="20" height="20" fill="#D9D9D9"/>
</mask>
<g mask="url(#mask0_487_2720)">
<path d="M10.5 18.8333C9.45833 18.8333 8.48264 18.6354 7.57292 18.2396C6.6632 17.8438 5.87153 17.309 5.19792 16.6354C4.52431 15.9618 3.98958 15.1701 3.59375 14.2604C3.19792 13.3507 3 12.375 3 11.3333C3 10.2917 3.19792 9.31598 3.59375 8.40626C3.98958 7.49654 4.52431 6.70487 5.19792 6.03126C5.87153 5.35765 6.6632 4.82293 7.57292 4.42709C8.48264 4.03126 9.45833 3.83334 10.5 3.83334H10.625L9.91667 3.12501C9.76389 2.97223 9.6875 2.78126 9.6875 2.55209C9.6875 2.32293 9.76389 2.12501 9.91667 1.95834C10.0833 1.79168 10.2813 1.70487 10.5104 1.69793C10.7396 1.69098 10.9375 1.77084 11.1042 1.93751L13.25 4.08334C13.4028 4.23612 13.4792 4.43057 13.4792 4.66668C13.4792 4.90279 13.4028 5.09723 13.25 5.25001L11.1042 7.39584C10.9375 7.56251 10.7396 7.64237 10.5104 7.63543C10.2813 7.62848 10.0833 7.54168 9.91667 7.37501C9.76389 7.20834 9.6875 7.01043 9.6875 6.78126C9.6875 6.55209 9.76389 6.36112 9.91667 6.20834L10.625 5.50001H10.5C8.875 5.50001 7.49653 6.06598 6.36458 7.19793C5.23264 8.32987 4.66667 9.70834 4.66667 11.3333C4.66667 12.9583 5.23264 14.3368 6.36458 15.4688C7.49653 16.6007 8.875 17.1667 10.5 17.1667C11.9722 17.1667 13.2569 16.6875 14.3542 15.7292C15.4514 14.7708 16.0972 13.5625 16.2917 12.1042C16.3194 11.882 16.4167 11.6979 16.5833 11.5521C16.75 11.4063 16.9444 11.3333 17.1667 11.3333C17.3889 11.3333 17.5833 11.4028 17.75 11.5417C17.9167 11.6806 17.9861 11.8542 17.9583 12.0625C17.7639 13.9931 16.9583 15.6042 15.5417 16.8958C14.125 18.1875 12.4444 18.8333 10.5 18.8333Z" fill="#ADAEB9"/>
</g>
</svg>
