<svg width="24" height="24" viewBox="0 0 24 24" fill="none" xmlns="http://www.w3.org/2000/svg">
<path d="M7.65195 3.7368C7.65195 3.01095 7.95924 2.31484 8.50622 1.80159C9.0532 1.28834 9.79506 1 10.5686 1C11.3422 1 12.084 1.28834 12.631 1.80159C13.178 2.31484 13.4853 3.01095 13.4853 3.7368V14.6034C14.2416 15.1601 14.811 15.9094 15.1253 16.7619C15.4395 17.6143 15.4853 18.5336 15.2571 19.4098C15.0289 20.286 14.5364 21.0819 13.8386 21.7023C13.1408 22.3226 12.2672 22.7411 11.3225 22.9077C10.9796 22.993 10.6231 23.0195 10.2702 22.9859C9.20588 22.9598 8.17821 22.6157 7.33677 22.0036C6.49534 21.3915 5.88406 20.5434 5.59194 19.5828C5.29981 18.6221 5.34209 17.599 5.7126 16.6624C6.08312 15.7259 6.76254 14.9247 7.65195 14.3756V3.7368Z" fill="url(#paint0_linear_282_2452)"/>
<path d="M10.4333 14.8857C11.1666 14.8737 11.8873 15.066 12.5041 15.4383C13.121 15.8106 13.6063 16.3462 13.8988 16.9774C14.1912 17.6085 14.2777 18.3068 14.1472 18.984C14.0167 19.6613 13.6751 20.287 13.1656 20.782C12.6561 21.2771 12.0016 21.6193 11.2849 21.7653C10.5681 21.9113 9.82132 21.8546 9.13892 21.6024C8.45652 21.3502 7.86915 20.9137 7.45109 20.3482C7.03304 19.7828 6.80307 19.1137 6.79027 18.4256C6.7731 17.5029 7.14728 16.6115 7.83048 15.9477C8.51368 15.2838 9.44995 14.9019 10.4333 14.8857Z" fill="white"/>
<path d="M12.2539 6.79075H8.75386V15.2941L8.95681 15.2L9.15119 15.1228L9.34317 15.0583L9.54598 15.0018L9.77351 14.9523L9.98166 14.9191L10.2098 14.8957L10.4333 14.8857L10.6886 14.8898L10.9203 14.9079L11.1702 14.9429L11.4 14.9897L11.6299 15.0513L11.8449 15.1228L12.061 15.2094L12.2539 15.3V6.79075Z" fill="white"/>
<path d="M18.6 7.31303C18.6 8.15826 17.8837 8.84346 17 8.84346C16.1164 8.84346 15.4 8.15826 15.4 7.31303C15.4 6.46779 16.1164 5.78259 17 5.78259C17.8837 5.78259 18.6 6.46779 18.6 7.31303Z" stroke="white" stroke-opacity="0.8" stroke-width="1.5"/>
<defs>
<linearGradient id="paint0_linear_282_2452" x1="9.45002" y1="3.772" x2="20.6526" y2="12.9401" gradientUnits="userSpaceOnUse">
<stop stop-color="white" stop-opacity="0.596"/>
<stop offset="1" stop-color="#F7F7F7" stop-opacity="0.204"/>
</linearGradient>
</defs>
</svg>
