<svg width="24" height="24" viewBox="0 0 24 24" fill="none" xmlns="http://www.w3.org/2000/svg">
<path d="M7.25193 3.8612C7.25193 3.10236 7.55922 2.3746 8.1062 1.83803C8.65318 1.30145 9.39504 1 10.1686 1C10.9421 1 11.684 1.30145 12.231 1.83803C12.778 2.3746 13.0852 3.10236 13.0852 3.8612V15.2218C13.8416 15.8037 14.411 16.5871 14.7252 17.4783C15.0395 18.3695 15.0852 19.3306 14.857 20.2466C14.6288 21.1626 14.1364 21.9947 13.4386 22.6433C12.7408 23.2918 11.8672 23.7294 10.9225 23.9035C10.5796 23.9927 10.2231 24.0204 9.87017 23.9852C8.80586 23.958 7.77819 23.5983 6.93675 22.9583C6.09531 22.3184 5.48404 21.4318 5.19191 20.4274C4.89979 19.4231 4.94206 18.3535 5.31258 17.3744C5.68309 16.3952 6.36251 15.5576 7.25193 14.9836V3.8612Z" fill="white"/>
<path d="M10.0333 15.5169C10.7666 15.5044 11.4873 15.7054 12.1041 16.0946C12.721 16.4839 13.2063 17.0438 13.4988 17.7036C13.7912 18.3634 13.8777 19.0935 13.7471 19.8015C13.6166 20.5095 13.275 21.1636 12.7655 21.6812C12.2561 22.1988 11.6016 22.5565 10.8848 22.7092C10.1681 22.8618 9.4213 22.8025 8.7389 22.5389C8.05649 22.2752 7.46913 21.8189 7.05107 21.2277C6.63301 20.6365 6.40304 19.937 6.39024 19.2177C6.37308 18.253 6.74726 17.3212 7.43046 16.6271C8.11366 15.9331 9.04992 15.5338 10.0333 15.5169Z" fill="#9191A1"/>
<path d="M11.8538 7.05396H8.35384V15.9439L8.55679 15.8454L8.75117 15.7648L8.94315 15.6973L9.14596 15.6383L9.37349 15.5865L9.58163 15.5518L9.80979 15.5274L10.0333 15.5169L10.2886 15.5212L10.5203 15.54L10.7702 15.5766L11 15.6256L11.2299 15.69L11.4448 15.7648L11.6609 15.8553L11.8538 15.95V7.05396Z" fill="#9191A1"/>
<path d="M18.2 7.6C18.2 8.48366 17.4837 9.2 16.6 9.2C15.7163 9.2 15 8.48366 15 7.6C15 6.71634 15.7163 6 16.6 6C17.4837 6 18.2 6.71634 18.2 7.6Z" stroke="#9191A1" stroke-width="1.5"/>
</svg>
