<svg width="206" height="199" viewBox="0 0 206 199" fill="none" xmlns="http://www.w3.org/2000/svg">
<g filter="url(#filter0_f_394_1211)">
<path d="M106.35 50H101.792C81.4722 50 65 66.4722 65 86.7917V86.7918C65 107.111 81.4722 123.583 101.792 123.583H106.35C126.67 123.583 143.142 107.111 143.142 86.7918V86.7917C143.142 66.4722 126.67 50 106.35 50Z" fill="#A4A2B9" fill-opacity="0.61"/>
</g>
<path d="M135.533 74.4653C135.742 73.2927 135.851 72.0864 135.851 70.8552C135.851 59.3372 126.294 50 114.504 50C105.739 50 98.2086 55.1603 94.9209 62.5408C92.2576 60.2943 88.8015 58.9379 85.0248 58.9379C76.6036 58.9379 69.7769 65.6814 69.7769 74C69.7769 74.4632 69.798 74.9215 69.8395 75.3741C65.789 77.3123 63 81.3794 63 86.0828C63 92.6645 68.4614 98 75.1983 98H132.802C139.539 98 145 92.6645 145 86.0828C145 80.4183 140.955 75.6768 135.533 74.4653Z" fill="#54516D" fill-opacity="0.8"/>
<g style="mix-blend-mode:color-burn" opacity="0.5" filter="url(#filter2_f_394_1211)">
<path d="M91.4985 137.724C91.4023 138.203 91.3501 138.674 91.3501 139.14C91.3502 142.39 93.9105 145.024 97.0679 145.024C99.2851 145.024 101.206 143.724 102.154 141.825C101.759 144.678 99.3771 146.873 96.4956 146.873C93.3383 146.872 90.7788 144.238 90.7788 140.988C90.7789 139.934 91.0383 138.855 91.4985 137.724Z" fill="url(#paint0_radial_394_1211)" fill-opacity="0.3"/>
</g>
<path opacity="0.5" d="M102.156 140.959C102.156 144.209 99.5961 146.844 96.4387 146.844C93.2813 146.844 90.7217 144.209 90.7217 140.959C90.7217 137.709 93.18 134.212 96.4387 129.714C99.1829 134.089 102.156 137.709 102.156 140.959Z" fill="url(#paint1_radial_394_1211)"/>
<g style="mix-blend-mode:screen" opacity="0.3">
<ellipse cx="97.8963" cy="136.123" rx="5.85996" ry="6.16157" fill="url(#paint2_radial_394_1211)"/>
</g>
<g style="mix-blend-mode:screen" opacity="0.3">
<ellipse cx="94.5807" cy="142.839" rx="5.85996" ry="6.16157" fill="url(#paint3_radial_394_1211)"/>
</g>
<g style="mix-blend-mode:color-burn" opacity="0.5" filter="url(#filter3_f_394_1211)">
<path d="M102.586 123.114C102.5 123.514 102.453 123.908 102.453 124.298C102.453 127.012 104.738 129.211 107.558 129.211C109.538 129.211 111.252 128.125 112.099 126.539C111.747 128.922 109.62 130.755 107.047 130.755C104.228 130.755 101.943 128.556 101.942 125.842C101.942 124.962 102.174 124.059 102.586 123.114Z" fill="url(#paint4_radial_394_1211)" fill-opacity="0.3"/>
</g>
<path opacity="0.5" d="M112.101 125.818C112.101 128.531 109.815 130.731 106.996 130.731C104.177 130.731 101.892 128.531 101.892 125.818C101.892 123.104 104.087 120.184 106.996 116.429C109.446 120.081 112.101 123.104 112.101 125.818Z" fill="url(#paint5_radial_394_1211)"/>
<g style="mix-blend-mode:screen" opacity="0.3">
<ellipse cx="108.298" cy="121.779" rx="5.23211" ry="5.14463" fill="url(#paint6_radial_394_1211)"/>
</g>
<g style="mix-blend-mode:screen" opacity="0.3">
<ellipse cx="105.337" cy="127.387" rx="5.23211" ry="5.14463" fill="url(#paint7_radial_394_1211)"/>
</g>
<g style="mix-blend-mode:color-burn" opacity="0.5" filter="url(#filter4_f_394_1211)">
<path d="M102.586 104.769C102.5 105.169 102.453 105.563 102.453 105.953C102.453 108.667 104.738 110.866 107.558 110.866C109.538 110.866 111.252 109.78 112.099 108.193C111.747 110.577 109.62 112.41 107.047 112.41C104.228 112.41 101.943 110.21 101.942 107.497C101.942 106.616 102.174 105.714 102.586 104.769Z" fill="url(#paint8_radial_394_1211)" fill-opacity="0.3"/>
</g>
<path opacity="0.5" d="M112.101 107.472C112.101 110.186 109.815 112.386 106.996 112.386C104.177 112.386 101.892 110.186 101.892 107.472C101.892 104.759 104.087 101.839 106.996 98.0835C109.446 101.736 112.101 104.759 112.101 107.472Z" fill="url(#paint9_radial_394_1211)"/>
<g style="mix-blend-mode:screen" opacity="0.3">
<ellipse cx="108.298" cy="103.434" rx="5.23211" ry="5.14463" fill="url(#paint10_radial_394_1211)"/>
</g>
<g style="mix-blend-mode:screen" opacity="0.3">
<ellipse cx="105.337" cy="109.042" rx="5.23211" ry="5.14463" fill="url(#paint11_radial_394_1211)"/>
</g>
<g style="mix-blend-mode:color-burn" opacity="0.5" filter="url(#filter5_f_394_1211)">
<path d="M112.978 137.724C112.882 138.202 112.83 138.673 112.83 139.14C112.83 142.389 115.39 145.024 118.548 145.024C120.765 145.024 122.685 143.724 123.634 141.824C123.239 144.678 120.857 146.872 117.975 146.872C114.818 146.872 112.259 144.238 112.259 140.988C112.259 139.935 112.518 138.855 112.978 137.724Z" fill="url(#paint12_radial_394_1211)" fill-opacity="0.3"/>
</g>
<path opacity="0.5" d="M123.635 140.959C123.635 144.209 121.076 146.844 117.918 146.844C114.761 146.844 112.201 144.209 112.201 140.959C112.201 137.709 114.659 134.212 117.918 129.714C120.662 134.089 123.635 137.709 123.635 140.959Z" fill="url(#paint13_radial_394_1211)"/>
<g style="mix-blend-mode:screen" opacity="0.3">
<ellipse cx="119.376" cy="136.123" rx="5.85996" ry="6.16157" fill="url(#paint14_radial_394_1211)"/>
</g>
<g style="mix-blend-mode:screen" opacity="0.3">
<ellipse cx="116.06" cy="142.839" rx="5.85996" ry="6.16157" fill="url(#paint15_radial_394_1211)"/>
</g>
<g style="mix-blend-mode:color-burn" opacity="0.5" filter="url(#filter6_f_394_1211)">
<path d="M81.5359 123.03C81.4496 123.431 81.4031 123.825 81.4031 124.215C81.4031 126.928 83.6884 129.128 86.5076 129.128C88.4878 129.128 90.2022 128.041 91.0486 126.455C90.697 128.839 88.5702 130.672 85.9968 130.672C83.1778 130.672 80.8924 128.472 80.8923 125.759C80.8923 124.878 81.1241 123.976 81.5359 123.03Z" fill="url(#paint16_radial_394_1211)" fill-opacity="0.3"/>
</g>
<path opacity="0.5" d="M91.0503 125.734C91.0503 128.448 88.7649 130.647 85.9458 130.647C83.1267 130.647 80.8413 128.448 80.8413 125.734C80.8413 123.021 83.0362 120.101 85.9458 116.345C88.396 119.998 91.0503 123.021 91.0503 125.734Z" fill="url(#paint17_radial_394_1211)"/>
<g style="mix-blend-mode:screen" opacity="0.3">
<ellipse cx="87.2475" cy="121.696" rx="5.23211" ry="5.14463" fill="url(#paint18_radial_394_1211)"/>
</g>
<g style="mix-blend-mode:screen" opacity="0.3">
<ellipse cx="84.2868" cy="127.303" rx="5.23211" ry="5.14463" fill="url(#paint19_radial_394_1211)"/>
</g>
<g style="mix-blend-mode:color-burn" opacity="0.5" filter="url(#filter7_f_394_1211)">
<path d="M81.5359 104.685C81.4496 105.086 81.4031 105.48 81.4031 105.87C81.4031 108.583 83.6884 110.783 86.5076 110.783C88.4878 110.783 90.2022 109.696 91.0486 108.11C90.697 110.493 88.5702 112.327 85.9968 112.327C83.1778 112.327 80.8924 110.127 80.8923 107.414C80.8923 106.533 81.1241 105.631 81.5359 104.685Z" fill="url(#paint20_radial_394_1211)" fill-opacity="0.3"/>
</g>
<path opacity="0.5" d="M91.0503 107.389C91.0503 110.102 88.7649 112.302 85.9458 112.302C83.1267 112.302 80.8413 110.102 80.8413 107.389C80.8413 104.676 83.0362 101.756 85.9458 98C88.396 101.653 91.0503 104.676 91.0503 107.389Z" fill="url(#paint21_radial_394_1211)"/>
<g style="mix-blend-mode:screen" opacity="0.3">
<ellipse cx="87.2475" cy="103.351" rx="5.23211" ry="5.14463" fill="url(#paint22_radial_394_1211)"/>
</g>
<g style="mix-blend-mode:screen" opacity="0.3">
<ellipse cx="84.2868" cy="108.958" rx="5.23211" ry="5.14463" fill="url(#paint23_radial_394_1211)"/>
</g>
<g style="mix-blend-mode:color-burn" opacity="0.5" filter="url(#filter8_f_394_1211)">
<path d="M123.421 123.114C123.335 123.514 123.289 123.908 123.289 124.298C123.289 127.012 125.574 129.211 128.393 129.211C130.373 129.211 132.088 128.125 132.934 126.539C132.583 128.922 130.456 130.755 127.882 130.755C125.063 130.755 122.778 128.556 122.778 125.842C122.778 124.962 123.01 124.059 123.421 123.114Z" fill="url(#paint24_radial_394_1211)" fill-opacity="0.3"/>
</g>
<path opacity="0.5" d="M132.936 125.818C132.936 128.531 130.65 130.731 127.831 130.731C125.012 130.731 122.727 128.531 122.727 125.818C122.727 123.104 124.921 120.184 127.831 116.429C130.281 120.081 132.936 123.104 132.936 125.818Z" fill="url(#paint25_radial_394_1211)"/>
<g style="mix-blend-mode:screen" opacity="0.3">
<ellipse cx="129.133" cy="121.779" rx="5.23211" ry="5.14463" fill="url(#paint26_radial_394_1211)"/>
</g>
<g style="mix-blend-mode:screen" opacity="0.3">
<ellipse cx="126.172" cy="127.387" rx="5.23211" ry="5.14463" fill="url(#paint27_radial_394_1211)"/>
</g>
<g style="mix-blend-mode:color-burn" opacity="0.5" filter="url(#filter9_f_394_1211)">
<path d="M123.421 104.769C123.335 105.169 123.289 105.563 123.289 105.953C123.289 108.667 125.574 110.866 128.393 110.866C130.373 110.866 132.088 109.78 132.934 108.193C132.583 110.577 130.456 112.41 127.882 112.41C125.063 112.41 122.778 110.21 122.778 107.497C122.778 106.616 123.01 105.714 123.421 104.769Z" fill="url(#paint28_radial_394_1211)" fill-opacity="0.3"/>
</g>
<path opacity="0.5" d="M132.936 107.472C132.936 110.186 130.65 112.386 127.831 112.386C125.012 112.386 122.727 110.186 122.727 107.472C122.727 104.759 124.921 101.839 127.831 98.0835C130.281 101.736 132.936 104.759 132.936 107.472Z" fill="url(#paint29_radial_394_1211)"/>
<g style="mix-blend-mode:screen" opacity="0.3">
<ellipse cx="129.133" cy="103.434" rx="5.23211" ry="5.14463" fill="url(#paint30_radial_394_1211)"/>
</g>
<g style="mix-blend-mode:screen" opacity="0.3">
<ellipse cx="126.172" cy="109.042" rx="5.23211" ry="5.14463" fill="url(#paint31_radial_394_1211)"/>
</g>
<defs>
<filter id="filter0_f_394_1211" x="15" y="0" width="178.142" height="173.583" filterUnits="userSpaceOnUse" color-interpolation-filters="sRGB">
<feFlood flood-opacity="0" result="BackgroundImageFix"/>
<feBlend mode="normal" in="SourceGraphic" in2="BackgroundImageFix" result="shape"/>
<feGaussianBlur stdDeviation="25" result="effect1_foregroundBlur_394_1211"/>
</filter>
<filter id="filter2_f_394_1211" x="82.7788" y="129.724" width="27.375" height="25.1484" filterUnits="userSpaceOnUse" color-interpolation-filters="sRGB">
<feFlood flood-opacity="0" result="BackgroundImageFix"/>
<feBlend mode="normal" in="SourceGraphic" in2="BackgroundImageFix" result="shape"/>
<feGaussianBlur stdDeviation="4" result="effect1_foregroundBlur_394_1211"/>
</filter>
<filter id="filter3_f_394_1211" x="93.9424" y="115.114" width="26.1562" height="23.6416" filterUnits="userSpaceOnUse" color-interpolation-filters="sRGB">
<feFlood flood-opacity="0" result="BackgroundImageFix"/>
<feBlend mode="normal" in="SourceGraphic" in2="BackgroundImageFix" result="shape"/>
<feGaussianBlur stdDeviation="4" result="effect1_foregroundBlur_394_1211"/>
</filter>
<filter id="filter4_f_394_1211" x="93.9424" y="96.7686" width="26.1562" height="23.6416" filterUnits="userSpaceOnUse" color-interpolation-filters="sRGB">
<feFlood flood-opacity="0" result="BackgroundImageFix"/>
<feBlend mode="normal" in="SourceGraphic" in2="BackgroundImageFix" result="shape"/>
<feGaussianBlur stdDeviation="4" result="effect1_foregroundBlur_394_1211"/>
</filter>
<filter id="filter5_f_394_1211" x="104.259" y="129.724" width="27.375" height="25.1484" filterUnits="userSpaceOnUse" color-interpolation-filters="sRGB">
<feFlood flood-opacity="0" result="BackgroundImageFix"/>
<feBlend mode="normal" in="SourceGraphic" in2="BackgroundImageFix" result="shape"/>
<feGaussianBlur stdDeviation="4" result="effect1_foregroundBlur_394_1211"/>
</filter>
<filter id="filter6_f_394_1211" x="72.8923" y="115.03" width="26.1562" height="23.6416" filterUnits="userSpaceOnUse" color-interpolation-filters="sRGB">
<feFlood flood-opacity="0" result="BackgroundImageFix"/>
<feBlend mode="normal" in="SourceGraphic" in2="BackgroundImageFix" result="shape"/>
<feGaussianBlur stdDeviation="4" result="effect1_foregroundBlur_394_1211"/>
</filter>
<filter id="filter7_f_394_1211" x="72.8923" y="96.6851" width="26.1562" height="23.6416" filterUnits="userSpaceOnUse" color-interpolation-filters="sRGB">
<feFlood flood-opacity="0" result="BackgroundImageFix"/>
<feBlend mode="normal" in="SourceGraphic" in2="BackgroundImageFix" result="shape"/>
<feGaussianBlur stdDeviation="4" result="effect1_foregroundBlur_394_1211"/>
</filter>
<filter id="filter8_f_394_1211" x="114.778" y="115.114" width="26.1562" height="23.6416" filterUnits="userSpaceOnUse" color-interpolation-filters="sRGB">
<feFlood flood-opacity="0" result="BackgroundImageFix"/>
<feBlend mode="normal" in="SourceGraphic" in2="BackgroundImageFix" result="shape"/>
<feGaussianBlur stdDeviation="4" result="effect1_foregroundBlur_394_1211"/>
</filter>
<filter id="filter9_f_394_1211" x="114.778" y="96.7686" width="26.1562" height="23.6416" filterUnits="userSpaceOnUse" color-interpolation-filters="sRGB">
<feFlood flood-opacity="0" result="BackgroundImageFix"/>
<feBlend mode="normal" in="SourceGraphic" in2="BackgroundImageFix" result="shape"/>
<feGaussianBlur stdDeviation="4" result="effect1_foregroundBlur_394_1211"/>
</filter>
<radialGradient id="paint0_radial_394_1211" cx="0" cy="0" r="1" gradientTransform="matrix(7.54546 -6.28496 4.19467 5.85142 96.4951 141.389)" gradientUnits="userSpaceOnUse">
<stop stop-color="#3CC7F5"/>
<stop offset="0.0001" stop-color="#3CC7F5"/>
<stop offset="1" stop-color="#004DFF"/>
</radialGradient>
<radialGradient id="paint1_radial_394_1211" cx="0" cy="0" r="1" gradientTransform="matrix(7.54649 -6.2848 4.19523 5.85127 96.4387 141.36)" gradientUnits="userSpaceOnUse">
<stop stop-color="#3CC7F5"/>
<stop offset="0.0001" stop-color="#3CC7F5"/>
<stop offset="1" stop-color="#004DFF"/>
</radialGradient>
<radialGradient id="paint2_radial_394_1211" cx="0" cy="0" r="1" gradientTransform="matrix(4.51217 7.20904 -1.98465 1.37336 97.8963 136.123)" gradientUnits="userSpaceOnUse">
<stop stop-color="white"/>
<stop offset="0.555017" stop-color="#BDDBF1" stop-opacity="0.25"/>
<stop offset="1" stop-color="#5686F5" stop-opacity="0"/>
</radialGradient>
<radialGradient id="paint3_radial_394_1211" cx="0" cy="0" r="1" gradientTransform="matrix(2.85852 3.63533 -1.63971 1.49764 94.2662 142.839)" gradientUnits="userSpaceOnUse">
<stop stop-color="white"/>
<stop offset="0.673987" stop-color="#BDDBF1" stop-opacity="0.25"/>
<stop offset="1" stop-color="#5686F5" stop-opacity="0"/>
</radialGradient>
<radialGradient id="paint4_radial_394_1211" cx="0" cy="0" r="1" gradientTransform="matrix(6.73702 -5.24977 3.74524 4.88764 107.046 126.175)" gradientUnits="userSpaceOnUse">
<stop stop-color="#3CC7F5"/>
<stop offset="0.0001" stop-color="#3CC7F5"/>
<stop offset="1" stop-color="#004DFF"/>
</radialGradient>
<radialGradient id="paint5_radial_394_1211" cx="0" cy="0" r="1" gradientTransform="matrix(6.73793 -5.24752 3.74574 4.88555 106.996 126.152)" gradientUnits="userSpaceOnUse">
<stop stop-color="#3CC7F5"/>
<stop offset="0.0001" stop-color="#3CC7F5"/>
<stop offset="1" stop-color="#004DFF"/>
</radialGradient>
<radialGradient id="paint6_radial_394_1211" cx="0" cy="0" r="1" gradientTransform="matrix(4.02872 6.01922 -1.77201 1.14669 108.298 121.779)" gradientUnits="userSpaceOnUse">
<stop stop-color="white"/>
<stop offset="0.555017" stop-color="#BDDBF1" stop-opacity="0.25"/>
<stop offset="1" stop-color="#5686F5" stop-opacity="0"/>
</radialGradient>
<radialGradient id="paint7_radial_394_1211" cx="0" cy="0" r="1" gradientTransform="matrix(2.55225 3.03533 -1.46403 1.25046 105.056 127.387)" gradientUnits="userSpaceOnUse">
<stop stop-color="white"/>
<stop offset="0.673987" stop-color="#BDDBF1" stop-opacity="0.25"/>
<stop offset="1" stop-color="#5686F5" stop-opacity="0"/>
</radialGradient>
<radialGradient id="paint8_radial_394_1211" cx="0" cy="0" r="1" gradientTransform="matrix(6.73702 -5.24977 3.74524 4.88764 107.046 107.829)" gradientUnits="userSpaceOnUse">
<stop stop-color="#3CC7F5"/>
<stop offset="0.0001" stop-color="#3CC7F5"/>
<stop offset="1" stop-color="#004DFF"/>
</radialGradient>
<radialGradient id="paint9_radial_394_1211" cx="0" cy="0" r="1" gradientTransform="matrix(6.73793 -5.24752 3.74574 4.88555 106.996 107.807)" gradientUnits="userSpaceOnUse">
<stop stop-color="#3CC7F5"/>
<stop offset="0.0001" stop-color="#3CC7F5"/>
<stop offset="1" stop-color="#004DFF"/>
</radialGradient>
<radialGradient id="paint10_radial_394_1211" cx="0" cy="0" r="1" gradientTransform="matrix(4.02872 6.01922 -1.77201 1.14669 108.298 103.434)" gradientUnits="userSpaceOnUse">
<stop stop-color="white"/>
<stop offset="0.555017" stop-color="#BDDBF1" stop-opacity="0.25"/>
<stop offset="1" stop-color="#5686F5" stop-opacity="0"/>
</radialGradient>
<radialGradient id="paint11_radial_394_1211" cx="0" cy="0" r="1" gradientTransform="matrix(2.55225 3.03533 -1.46403 1.25046 105.056 109.042)" gradientUnits="userSpaceOnUse">
<stop stop-color="white"/>
<stop offset="0.673987" stop-color="#BDDBF1" stop-opacity="0.25"/>
<stop offset="1" stop-color="#5686F5" stop-opacity="0"/>
</radialGradient>
<radialGradient id="paint12_radial_394_1211" cx="0" cy="0" r="1" gradientTransform="matrix(7.54546 -6.28496 4.19467 5.85142 117.975 141.388)" gradientUnits="userSpaceOnUse">
<stop stop-color="#3CC7F5"/>
<stop offset="0.0001" stop-color="#3CC7F5"/>
<stop offset="1" stop-color="#004DFF"/>
</radialGradient>
<radialGradient id="paint13_radial_394_1211" cx="0" cy="0" r="1" gradientTransform="matrix(7.54649 -6.2848 4.19523 5.85127 117.918 141.36)" gradientUnits="userSpaceOnUse">
<stop stop-color="#3CC7F5"/>
<stop offset="0.0001" stop-color="#3CC7F5"/>
<stop offset="1" stop-color="#004DFF"/>
</radialGradient>
<radialGradient id="paint14_radial_394_1211" cx="0" cy="0" r="1" gradientTransform="matrix(4.51217 7.20904 -1.98465 1.37336 119.376 136.123)" gradientUnits="userSpaceOnUse">
<stop stop-color="white"/>
<stop offset="0.555017" stop-color="#BDDBF1" stop-opacity="0.25"/>
<stop offset="1" stop-color="#5686F5" stop-opacity="0"/>
</radialGradient>
<radialGradient id="paint15_radial_394_1211" cx="0" cy="0" r="1" gradientTransform="matrix(2.85852 3.63533 -1.63971 1.49764 115.746 142.839)" gradientUnits="userSpaceOnUse">
<stop stop-color="white"/>
<stop offset="0.673987" stop-color="#BDDBF1" stop-opacity="0.25"/>
<stop offset="1" stop-color="#5686F5" stop-opacity="0"/>
</radialGradient>
<radialGradient id="paint16_radial_394_1211" cx="0" cy="0" r="1" gradientTransform="matrix(6.73702 -5.24977 3.74524 4.88764 85.9961 126.091)" gradientUnits="userSpaceOnUse">
<stop stop-color="#3CC7F5"/>
<stop offset="0.0001" stop-color="#3CC7F5"/>
<stop offset="1" stop-color="#004DFF"/>
</radialGradient>
<radialGradient id="paint17_radial_394_1211" cx="0" cy="0" r="1" gradientTransform="matrix(6.73793 -5.24752 3.74574 4.88555 85.9458 126.069)" gradientUnits="userSpaceOnUse">
<stop stop-color="#3CC7F5"/>
<stop offset="0.0001" stop-color="#3CC7F5"/>
<stop offset="1" stop-color="#004DFF"/>
</radialGradient>
<radialGradient id="paint18_radial_394_1211" cx="0" cy="0" r="1" gradientTransform="matrix(4.02872 6.01922 -1.77201 1.14669 87.2475 121.696)" gradientUnits="userSpaceOnUse">
<stop stop-color="white"/>
<stop offset="0.555017" stop-color="#BDDBF1" stop-opacity="0.25"/>
<stop offset="1" stop-color="#5686F5" stop-opacity="0"/>
</radialGradient>
<radialGradient id="paint19_radial_394_1211" cx="0" cy="0" r="1" gradientTransform="matrix(2.55225 3.03533 -1.46403 1.25046 84.006 127.303)" gradientUnits="userSpaceOnUse">
<stop stop-color="white"/>
<stop offset="0.673987" stop-color="#BDDBF1" stop-opacity="0.25"/>
<stop offset="1" stop-color="#5686F5" stop-opacity="0"/>
</radialGradient>
<radialGradient id="paint20_radial_394_1211" cx="0" cy="0" r="1" gradientTransform="matrix(6.73702 -5.24977 3.74524 4.88764 85.9961 107.746)" gradientUnits="userSpaceOnUse">
<stop stop-color="#3CC7F5"/>
<stop offset="0.0001" stop-color="#3CC7F5"/>
<stop offset="1" stop-color="#004DFF"/>
</radialGradient>
<radialGradient id="paint21_radial_394_1211" cx="0" cy="0" r="1" gradientTransform="matrix(6.73793 -5.24752 3.74574 4.88555 85.9458 107.723)" gradientUnits="userSpaceOnUse">
<stop stop-color="#3CC7F5"/>
<stop offset="0.0001" stop-color="#3CC7F5"/>
<stop offset="1" stop-color="#004DFF"/>
</radialGradient>
<radialGradient id="paint22_radial_394_1211" cx="0" cy="0" r="1" gradientTransform="matrix(4.02872 6.01922 -1.77201 1.14669 87.2475 103.351)" gradientUnits="userSpaceOnUse">
<stop stop-color="white"/>
<stop offset="0.555017" stop-color="#BDDBF1" stop-opacity="0.25"/>
<stop offset="1" stop-color="#5686F5" stop-opacity="0"/>
</radialGradient>
<radialGradient id="paint23_radial_394_1211" cx="0" cy="0" r="1" gradientTransform="matrix(2.55225 3.03533 -1.46403 1.25046 84.006 108.958)" gradientUnits="userSpaceOnUse">
<stop stop-color="white"/>
<stop offset="0.673987" stop-color="#BDDBF1" stop-opacity="0.25"/>
<stop offset="1" stop-color="#5686F5" stop-opacity="0"/>
</radialGradient>
<radialGradient id="paint24_radial_394_1211" cx="0" cy="0" r="1" gradientTransform="matrix(6.73702 -5.24977 3.74524 4.88764 127.882 126.175)" gradientUnits="userSpaceOnUse">
<stop stop-color="#3CC7F5"/>
<stop offset="0.0001" stop-color="#3CC7F5"/>
<stop offset="1" stop-color="#004DFF"/>
</radialGradient>
<radialGradient id="paint25_radial_394_1211" cx="0" cy="0" r="1" gradientTransform="matrix(6.73793 -5.24752 3.74574 4.88555 127.831 126.152)" gradientUnits="userSpaceOnUse">
<stop stop-color="#3CC7F5"/>
<stop offset="0.0001" stop-color="#3CC7F5"/>
<stop offset="1" stop-color="#004DFF"/>
</radialGradient>
<radialGradient id="paint26_radial_394_1211" cx="0" cy="0" r="1" gradientTransform="matrix(4.02872 6.01922 -1.77201 1.14669 129.133 121.779)" gradientUnits="userSpaceOnUse">
<stop stop-color="white"/>
<stop offset="0.555017" stop-color="#BDDBF1" stop-opacity="0.25"/>
<stop offset="1" stop-color="#5686F5" stop-opacity="0"/>
</radialGradient>
<radialGradient id="paint27_radial_394_1211" cx="0" cy="0" r="1" gradientTransform="matrix(2.55225 3.03533 -1.46403 1.25046 125.892 127.387)" gradientUnits="userSpaceOnUse">
<stop stop-color="white"/>
<stop offset="0.673987" stop-color="#BDDBF1" stop-opacity="0.25"/>
<stop offset="1" stop-color="#5686F5" stop-opacity="0"/>
</radialGradient>
<radialGradient id="paint28_radial_394_1211" cx="0" cy="0" r="1" gradientTransform="matrix(6.73702 -5.24977 3.74524 4.88764 127.882 107.829)" gradientUnits="userSpaceOnUse">
<stop stop-color="#3CC7F5"/>
<stop offset="0.0001" stop-color="#3CC7F5"/>
<stop offset="1" stop-color="#004DFF"/>
</radialGradient>
<radialGradient id="paint29_radial_394_1211" cx="0" cy="0" r="1" gradientTransform="matrix(6.73793 -5.24752 3.74574 4.88555 127.831 107.807)" gradientUnits="userSpaceOnUse">
<stop stop-color="#3CC7F5"/>
<stop offset="0.0001" stop-color="#3CC7F5"/>
<stop offset="1" stop-color="#004DFF"/>
</radialGradient>
<radialGradient id="paint30_radial_394_1211" cx="0" cy="0" r="1" gradientTransform="matrix(4.02872 6.01922 -1.77201 1.14669 129.133 103.434)" gradientUnits="userSpaceOnUse">
<stop stop-color="white"/>
<stop offset="0.555017" stop-color="#BDDBF1" stop-opacity="0.25"/>
<stop offset="1" stop-color="#5686F5" stop-opacity="0"/>
</radialGradient>
<radialGradient id="paint31_radial_394_1211" cx="0" cy="0" r="1" gradientTransform="matrix(2.55225 3.03533 -1.46403 1.25046 125.892 109.042)" gradientUnits="userSpaceOnUse">
<stop stop-color="white"/>
<stop offset="0.673987" stop-color="#BDDBF1" stop-opacity="0.25"/>
<stop offset="1" stop-color="#5686F5" stop-opacity="0"/>
</radialGradient>
</defs>
</svg>
